{
.appVersion = "3133";
DisplayStrings = (
"ABCDEFGHIJK\012LMNOPQRSTU\012VWXYZ/space \01212345767890\012(.,;:)-/endash/emdash &!?\012GTL-1/space 32-TEeth/space \0123d-Render512\012",

glyphs = (
{
color = 5;
glyphname = A;
layers = (
{
layerId = master01;
paths = (
{
closed = 1;
nodes = (
"235 0 LINE",
"245 10 LINE",
"245 340 LINE",
"255 350 LINE",
"265 350 LINE",
"275 340 LINE",
"275 10 LINE",
"285 0 LINE",
"485 0 LINE",
"505 20 LINE",
"505 40 LINE",
"280 690 LINE",
"270 700 LINE",
"250 700 LINE",
"240 690 LINE",
"15 40 LINE",
"15 20 LINE",
"35 0 LINE"
);
}
);
width = 520;
},
{
associatedMasterId = master01;
layerId = "0DA5F136-996A-4481-9F66-E80EDB52DA02";
name = "Jul 27, 22, 14:09";
paths = (
{
closed = 1;
nodes = (
"279 0 LINE",
"289 10 LINE",
"289 340 LINE",
"299 350 LINE",
"309 350 LINE",
"319 340 LINE",
"319 10 LINE",
"329 0 LINE",
"578 0 LINE",
"598 20 LINE",
"598 40 LINE",
"324 690 LINE",
"314 700 LINE",
"294 700 LINE",
"284 690 LINE",
"10 40 LINE",
"10 20 LINE",
"30 0 LINE"
);
}
);
width = 608;
}
);
leftKerningGroup = A;
rightKerningGroup = A;
unicode = 0041;
},
{
color = 5;
glyphname = B;
layers = (
{
layerId = master01;
paths = (
{
closed = 1;
nodes = (
"328 0 LINE SMOOTH",
"467 0 OFFCURVE",
"546 124 OFFCURVE",
"546 233 CURVE SMOOTH",
"546 376 OFFCURVE",
"465 462 OFFCURVE",
"339 475 CURVE",
"329 485 LINE",
"329 490 LINE",
"339 500 LINE",
"391 516 OFFCURVE",
"407 551 OFFCURVE",
"407 590 CURVE SMOOTH",
"407 657 OFFCURVE",
"356 700 OFFCURVE",
"279 700 CURVE SMOOTH",
"35 700 LINE",
"15 680 LINE",
"15 510 LINE",
"25 500 LINE",
"217 500 LINE",
"227 490 LINE",
"227 485 LINE",
"217 475 LINE",
"25 475 LINE",
"15 465 LINE",
"15 385 LINE",
"25 375 LINE",
"247 375 LINE",
"257 365 LINE",
"257 360 LINE",
"247 350 LINE",
"25 350 LINE",
"15 340 LINE",
"15 20 LINE",
"35 0 LINE"
);
}
);
width = 556;
},
{
associatedMasterId = master01;
layerId = "8D44544E-35A1-496C-9447-3364D99B4831";
name = "Jul 29, 22, 12:01";
paths = (
{
closed = 1;
nodes = (
"348 0 LINE SMOOTH",
"487 0 OFFCURVE",
"546 104 OFFCURVE",
"546 213 CURVE SMOOTH",
"546 316 OFFCURVE",
"489 380 OFFCURVE",
"436 413 CURVE",
"430 423 LINE",
"436 433 LINE",
"476 456 OFFCURVE",
"500 488 OFFCURVE",
"500 544 CURVE SMOOTH",
"500 639 OFFCURVE",
"434 700 OFFCURVE",
"294 700 CURVE SMOOTH",
"36 700 LINE",
"16 680 LINE",
"16 510 LINE",
"26 500 LINE",
"217 500 LINE",
"227 490 LINE",
"227 485 LINE",
"217 475 LINE",
"26 475 LINE",
"16 465 LINE",
"16 385 LINE",
"26 375 LINE",
"247 375 LINE",
"257 365 LINE",
"257 360 LINE",
"247 350 LINE",
"26 350 LINE",
"16 340 LINE",
"15 20 LINE",
"35 0 LINE"
);
}
);
width = 551;
},
{
associatedMasterId = master01;
layerId = "E30DC16A-A312-4B9D-92C2-9160E299F06F";
name = "Jul 29, 22, 12:35";
paths = (
{
closed = 1;
nodes = (
"416 -11 OFFCURVE",
"547 75 OFFCURVE",
"546 239 CURVE SMOOTH",
"545 383 OFFCURVE",
"444 475 OFFCURVE",
"321 475 CURVE",
"311 485 LINE",
"311 490 LINE",
"321 500 LINE",
"381 500 OFFCURVE",
"417 548 OFFCURVE",
"417 597 CURVE SMOOTH",
"417 666 OFFCURVE",
"356 710 OFFCURVE",
"296 710 CURVE SMOOTH",
"236 710 OFFCURVE",
"181 666 OFFCURVE",
"181 597 CURVE SMOOTH",
"181 548 OFFCURVE",
"211 500 OFFCURVE",
"271 500 CURVE",
"281 490 LINE",
"281 484 LINE",
"271 474 LINE",
"153 470 OFFCURVE",
"46 383 OFFCURVE",
"46 239 CURVE SMOOTH",
"46 75 OFFCURVE",
"176 -11 OFFCURVE",
"296 -11 CURVE SMOOTH"
);
}
);
visible = 1;
width = 556;
}
);
leftKerningGroup = H;
rightKerningGroup = B;
unicode = 0042;
},
{
color = 5;
glyphname = C;
layers = (
{
layerId = master01;
paths = (
{
closed = 1;
nodes = (
"569 -10 OFFCURVE",
"725 155 OFFCURVE",
"725 310 CURVE SMOOTH",
"725 330 LINE",
"705 350 LINE",
"356 350 LINE",
"346 361 LINE",
"351 372 LINE",
"615 540 LINE",
"625 560 LINE",
"625 580 LINE",
"586 659 OFFCURVE",
"486 710 OFFCURVE",
"366 710 CURVE SMOOTH",
"171 710 OFFCURVE",
"10 549 OFFCURVE",
"10 350 CURVE SMOOTH",
"10 151 OFFCURVE",
"171 -10 OFFCURVE",
"370 -10 CURVE SMOOTH"
);
}
);
width = 735;
},
{
associatedMasterId = master01;
layerId = "D982E1AE-CA90-4FFC-9A0B-52673156A563";
name = "Jul 12, 22, 20:02";
paths = (
{
closed = 1;
nodes = (
"545 -10 OFFCURVE",
"643 159 OFFCURVE",
"663 249 CURVE",
"658 259 LINE",
"363 340 LINE",
"358 350 LINE",
"363 360 LINE",
"658 480 LINE",
"663 490 LINE",
"626 604 OFFCURVE",
"525 710 OFFCURVE",
"355 710 CURVE SMOOTH",
"165 710 OFFCURVE",
"5 540 OFFCURVE",
"5 350 CURVE SMOOTH",
"5 160 OFFCURVE",
"164 -10 OFFCURVE",
"355 -10 CURVE SMOOTH"
);
}
);
width = 668;
},
{
associatedMasterId = master01;
layerId = "2C084B3B-93A1-47A4-A041-E05FD0850105";
name = "Jul 25, 22, 17:01";
paths = (
{
closed = 1;
nodes = (
"541 -10 OFFCURVE",
"640 137 OFFCURVE",
"663 229 CURVE",
"663 249 LINE",
"658 259 LINE",
"363 340 LINE",
"358 350 LINE",
"363 360 LINE",
"658 480 LINE",
"663 490 LINE",
"663 510 LINE",
"624 621 OFFCURVE",
"522 710 OFFCURVE",
"355 710 CURVE SMOOTH",
"165 710 OFFCURVE",
"5 540 OFFCURVE",
"5 350 CURVE SMOOTH",
"5 160 OFFCURVE",
"164 -10 OFFCURVE",
"355 -10 CURVE SMOOTH"
);
}
);
width = 668;
},
{
associatedMasterId = master01;
layerId = "8CAD4116-9DC3-438F-9907-00FFAAF64CB5";
name = "Jul 27, 22, 21:38";
paths = (
{
closed = 1;
nodes = (
"430 -10 OFFCURVE",
"490 10 OFFCURVE",
"560 70 CURVE",
"570 75 LINE",
"580 70 LINE",
"610 20 LINE",
"630 0 LINE",
"650 0 LINE",
"670 20 LINE",
"670 330 LINE",
"650 350 LINE",
"351 352 LINE",
"346 362 LINE",
"351 372 LINE",
"560 500 LINE",
"580 520 LINE",
"580 540 LINE",
"547 628 OFFCURVE",
"460 710 OFFCURVE",
"330 710 CURVE SMOOTH",
"133 710 OFFCURVE",
"10 540 OFFCURVE",
"10 349 CURVE SMOOTH",
"10 157 OFFCURVE",
"138 -10 OFFCURVE",
"349 -10 CURVE SMOOTH"
);
}
);
width = 678;
},
{
associatedMasterId = master01;
layerId = "677FB64B-913A-4CAB-9EAB-2D9D803076A9";
name = "Jul 28, 22, 10:15";
paths = (
{
closed = 1;
nodes = (
"546 -10 OFFCURVE",
"670 175 OFFCURVE",
"670 310 CURVE SMOOTH",
"670 330 LINE",
"650 350 LINE",
"351 352 LINE",
"346 362 LINE",
"351 372 LINE",
"560 500 LINE",
"580 520 LINE",
"580 540 LINE",
"532 647 OFFCURVE",
"447 710 OFFCURVE",
"330 710 CURVE SMOOTH",
"140 710 OFFCURVE",
"10 540 OFFCURVE",
"10 350 CURVE SMOOTH",
"10 160 OFFCURVE",
"169 -10 OFFCURVE",
"360 -10 CURVE SMOOTH"
);
}
);
width = 678;
},
{
associatedMasterId = master01;
layerId = "7DC00D84-3827-4911-AFD3-F450CEED7B9B";
name = "Jul 28, 22, 10:15";
paths = (
{
closed = 1;
nodes = (
"569 -10 OFFCURVE",
"730 151 OFFCURVE",
"730 350 CURVE SMOOTH",
"730 549 OFFCURVE",
"569 710 OFFCURVE",
"370 710 CURVE SMOOTH",
"171 710 OFFCURVE",
"10 549 OFFCURVE",
"10 350 CURVE SMOOTH",
"10 151 OFFCURVE",
"171 -10 OFFCURVE",
"370 -10 CURVE SMOOTH"
);
}
);
visible = 1;
width = 740;
}
);
leftKerningGroup = O;
rightKerningGroup = C;
unicode = 0043;
},
{
color = 5;
glyphname = D;
layers = (
{
layerId = master01;
paths = (
{
closed = 1;
nodes = (
"15 20 LINE",
"15 465 LINE",
"25 475 LINE",
"215 475 LINE",
"225 485 LINE",
"225 490 LINE",
"215 500 LINE",
"25 500 LINE",
"15 510 LINE",
"19 680 LINE",
"39 700 LINE",
"225 700 LINE SMOOTH",
"415 700 OFFCURVE",
"565 612 OFFCURVE",
"565 350 CURVE SMOOTH",
"565 96 OFFCURVE",
"426 0 OFFCURVE",
"236 0 CURVE SMOOTH",
"34 0 LINE"
);
}
);
width = 575;
}
);
leftKerningGroup = H;
rightKerningGroup = O;
unicode = 0044;
},
{
color = 5;
glyphname = E;
layers = (
{
layerId = master01;
paths = (
{
closed = 1;
nodes = (
"475 0 LINE",
"495 20 LINE",
"495 330 LINE",
"475 350 LINE",
"250 350 LINE",
"240 360 LINE",
"240 365 LINE",
"250 375 LINE",
"415 375 LINE",
"425 385 LINE",
"425 465 LINE",
"415 475 LINE",
"245 475 LINE",
"235 485 LINE",
"235 490 LINE",
"245 500 LINE",
"395 500 LINE",
"405 510 LINE",
"405 680 LINE",
"385 700 LINE",
"35 700 LINE",
"15 680 LINE",
"15 20 LINE",
"35 0 LINE"
);
}
);
width = 510;
}
);
leftKerningGroup = H;
rightKerningGroup = E;
unicode = 0045;
},
{
color = 5;
glyphname = F;
layers = (
{
layerId = master01;
paths = (
{
closed = 1;
nodes = (
"225 0 LINE",
"245 20 LINE",
"245 365 LINE",
"255 375 LINE",
"335 375 LINE",
"345 385 LINE",
"345 465 LINE",
"335 475 LINE",
"255 475 LINE",
"245 485 LINE",
"245 490 LINE",
"255 500 LINE",
"395 500 LINE",
"415 520 LINE",
"415 680 LINE",
"395 700 LINE",
"35 700 LINE",
"15 680 LINE",
"15 20 LINE",
"35 0 LINE"
);
}
);
width = 430;
}
);
leftKerningGroup = H;
rightKerningGroup = F;
unicode = 0046;
},
{
color = 5;
glyphname = G;
layers = (
{
layerId = master01;
paths = (
{
closed = 1;
nodes = (
"486 -10 OFFCURVE",
"558 39 OFFCURVE",
"605 79 CURVE",
"615 84 LINE",
"625 79 LINE",
"665 20 LINE",
"685 0 LINE",
"705 0 LINE",
"725 20 LINE",
"725 330 LINE",
"705 350 LINE",
"356 350 LINE",
"346 362 LINE",
"351 372 LINE",
"625 530 LINE",
"635 550 LINE",
"635 570 LINE",
"595 639 OFFCURVE",
"520 710 OFFCURVE",
"355 710 CURVE SMOOTH",
"167 710 OFFCURVE",
"10 544 OFFCURVE",
"10 349 CURVE SMOOTH",
"10 157 OFFCURVE",
"164 -10 OFFCURVE",
"375 -10 CURVE SMOOTH"
);
}
);
width = 740;
},
{
associatedMasterId = master01;
layerId = "3A6260ED-7C49-4B98-AE9C-08074D05CCF7";
name = "Jul 28, 22, 16:05";
paths = (
{
closed = 1;
nodes = (
"569 -10 OFFCURVE",
"725 155 OFFCURVE",
"725 310 CURVE SMOOTH",
"725 330 LINE",
"705 350 LINE",
"351 352 LINE",
"346 362 LINE",
"351 372 LINE",
"615 540 LINE",
"625 560 LINE",
"625 580 LINE",
"586 659 OFFCURVE",
"486 710 OFFCURVE",
"366 710 CURVE SMOOTH",
"171 710 OFFCURVE",
"10 549 OFFCURVE",
"10 350 CURVE SMOOTH",
"10 151 OFFCURVE",
"171 -10 OFFCURVE",
"370 -10 CURVE SMOOTH"
);
}
);
visible = 1;
width = 740;
},
{
associatedMasterId = master01;
layerId = "7C6A276B-A4EE-4E50-956E-650A27AAA9C2";
name = "Jul 28, 22, 16:05";
paths = (
{
closed = 1;
nodes = (
"430 -10 OFFCURVE",
"490 10 OFFCURVE",
"560 70 CURVE",
"570 75 LINE",
"580 70 LINE",
"610 20 LINE",
"630 0 LINE",
"650 0 LINE",
"670 20 LINE",
"670 330 LINE",
"650 350 LINE",
"351 352 LINE",
"346 362 LINE",
"351 372 LINE",
"560 500 LINE",
"580 520 LINE",
"580 540 LINE",
"547 628 OFFCURVE",
"460 710 OFFCURVE",
"330 710 CURVE SMOOTH",
"133 710 OFFCURVE",
"10 540 OFFCURVE",
"10 349 CURVE SMOOTH",
"10 157 OFFCURVE",
"138 -10 OFFCURVE",
"349 -10 CURVE SMOOTH"
);
}
);
width = 740;
}
);
leftKerningGroup = O;
rightKerningGroup = G;
unicode = 0047;
},
{
color = 5;
glyphname = H;
layers = (
{
layerId = master01;
paths = (
{
closed = 1;
nodes = (
"235 0 LINE",
"245 10 LINE",
"245 340 LINE",
"255 350 LINE",
"265 350 LINE",
"275 340 LINE",
"275 10 LINE",
"285 0 LINE",
"485 0 LINE",
"505 20 LINE",
"505 680 LINE",
"485 700 LINE",
"285 700 LINE",
"275 690 LINE",
"275 510 LINE",
"265 500 LINE",
"255 500 LINE",
"245 510 LINE",
"245 690 LINE",
"235 700 LINE",
"35 700 LINE",
"15 680 LINE",
"15 20 LINE",
"35 0 LINE"
);
}
);
width = 520;
}
);
leftKerningGroup = H;
rightKerningGroup = H;
unicode = 0048;
},
{
color = 5;
glyphname = I;
layers = (
{
layerId = master01;
paths = (
{
closed = 1;
nodes = (
"225 0 LINE",
"245 20 LINE",
"245 680 LINE",
"225 700 LINE",
"35 700 LINE",
"15 680 LINE",
"15 20 LINE",
"35 0 LINE"
);
}
);
width = 260;
},
{
associatedMasterId = master01;
layerId = "0682E3DE-6743-44EB-A6B4-E44CD22A2DF5";
name = "Jul 27, 22, 18:10";
paths = (
{
closed = 1;
nodes = (
"345 0 LINE",
"365 20 LINE",
"365 330 LINE",
"345 350 LINE",
"315 350 LINE",
"305 360 LINE",
"305 490 LINE",
"315 500 LINE",
"345 500 LINE",
"365 520 LINE",
"365 680 LINE",
"345 700 LINE",
"35 700 LINE",
"15 680 LINE",
"15 520 LINE",
"35 500 LINE",
"65 500 LINE",
"75 490 LINE",
"75 360 LINE",
"65 350 LINE",
"35 350 LINE",
"15 330 LINE",
"15 20 LINE",
"35 0 LINE"
);
}
);
width = 380;
}
);
leftKerningGroup = H;
rightKerningGroup = H;
unicode = 0049;
},
{
color = 5;
glyphname = J;
layers = (
{
layerId = master01;
paths = (
{
closed = 1;
nodes = (
"431 -9 OFFCURVE",
"505 51 OFFCURVE",
"505 190 CURVE SMOOTH",
"505 680 LINE",
"485 700 LINE",
"295 700 LINE",
"275 680 LINE",
"275 190 LINE",
"265 180 LINE",
"255 180 LINE",
"245 190 LINE",
"245 340 LINE",
"235 350 LINE",
"35 350 LINE",
"15 330 LINE",
"15 180 LINE SMOOTH",
"15 51 OFFCURVE",
"126 -11 OFFCURVE",
"265 -10 CURVE SMOOTH"
);
}
);
width = 520;
}
);
leftKerningGroup = J;
rightKerningGroup = U;
unicode = 004A;
},
{
color = 5;
glyphname = K;
layers = (
{
layerId = master01;
paths = (
{
closed = 1;
nodes = (
"235 0 LINE",
"245 10 LINE",
"245 340 LINE",
"255 350 LINE",
"265 350 LINE",
"275 340 LINE",
"275 10 LINE",
"285 0 LINE",
"568 0 LINE",
"588 20 LINE",
"588 40 LINE",
"435 400 LINE",
"433 410 LINE",
"435 420 LINE",
"585 660 LINE",
"585 680 LINE",
"565 700 LINE",
"285 700 LINE",
"275 690 LINE",
"275 510 LINE",
"265 500 LINE",
"255 500 LINE",
"245 510 LINE",
"245 690 LINE",
"235 700 LINE",
"35 700 LINE",
"15 680 LINE",
"15 20 LINE",
"35 0 LINE"
);
}
);
width = 598;
}
);
leftKerningGroup = H;
rightKerningGroup = K;
unicode = 004B;
},
{
color = 5;
glyphname = L;
layers = (
{
layerId = master01;
paths = (
{
closed = 1;
nodes = (
"325 0 LINE",
"345 20 LINE",
"345 328 LINE",
"325 350 LINE",
"255 350 LINE",
"245 360 LINE",
"245 680 LINE",
"225 700 LINE",
"35 700 LINE",
"15 680 LINE",
"15 20 LINE",
"35 0 LINE"
);
}
);
width = 360;
}
);
leftKerningGroup = L;
rightKerningGroup = L;
unicode = 004C;
},
{
color = 5;
glyphname = M;
layers = (
{
layerId = master01;
paths = (
{
closed = 1;
nodes = (
"235 0 LINE",
"245 10 LINE",
"245 340 LINE",
"255 350 LINE",
"265 350 LINE",
"275 340 LINE",
"275 10 LINE",
"285 0 LINE",
"495 0 LINE",
"505 10 LINE",
"505 340 LINE",
"515 350 LINE",
"525 350 LINE",
"535 340 LINE",
"535 10 LINE",
"545 0 LINE",
"745 0 LINE",
"765 20 LINE",
"765 680 LINE",
"745 700 LINE",
"725 700 LINE",
"400 503 LINE",
"390 500 LINE",
"380 503 LINE",
"55 700 LINE",
"35 700 LINE",
"15 680 LINE",
"15 20 LINE",
"35 0 LINE"
);
}
);
width = 780;
}
);
leftKerningGroup = M;
rightKerningGroup = M;
unicode = 004D;
},
{
color = 5;
glyphname = N;
layers = (
{
layerId = master01;
paths = (
{
closed = 1;
nodes = (
"235 0 LINE",
"245 10 LINE",
"245 340 LINE",
"255 350 LINE",
"265 350 LINE",
"275 340 LINE",
"275 10 LINE",
"285 0 LINE",
"485 0 LINE",
"505 20 LINE",
"505 680 LINE",
"485 700 LINE",
"295 700 LINE",
"275 680 LINE",
"275 513 LINE",
"265 503 LINE",
"255 500 LINE",
"245 503 LINE",
"55 700 LINE",
"35 700 LINE",
"15 680 LINE",
"15 20 LINE",
"35 0 LINE"
);
}
);
width = 520;
}
);
leftKerningGroup = N;
rightKerningGroup = N;
unicode = 004E;
},
{
color = 5;
glyphname = O;
layers = (
{
layerId = master01;
paths = (
{
closed = 1;
nodes = (
"569 -10 OFFCURVE",
"730 151 OFFCURVE",
"730 350 CURVE SMOOTH",
"730 549 OFFCURVE",
"569 710 OFFCURVE",
"370 710 CURVE SMOOTH",
"171 710 OFFCURVE",
"10 549 OFFCURVE",
"10 350 CURVE SMOOTH",
"10 151 OFFCURVE",
"171 -10 OFFCURVE",
"370 -10 CURVE SMOOTH"
);
}
);
width = 740;
},
{
associatedMasterId = master01;
layerId = "07277A1D-F334-45D7-8AEB-1E1ADAD6449A";
name = "Jul 28, 22, 09:49";
paths = (
{
closed = 1;
nodes = (
"569 -10 OFFCURVE",
"730 151 OFFCURVE",
"730 350 CURVE SMOOTH",
"730 549 OFFCURVE",
"569 710 OFFCURVE",
"370 710 CURVE SMOOTH",
"171 710 OFFCURVE",
"10 549 OFFCURVE",
"10 350 CURVE SMOOTH",
"10 151 OFFCURVE",
"171 -10 OFFCURVE",
"370 -10 CURVE SMOOTH"
);
}
);
width = 740;
}
);
leftKerningGroup = O;
rightKerningGroup = O;
unicode = 004F;
},
{
color = 5;
glyphname = P;
layers = (
{
layerId = master01;
paths = (
{
closed = 1;
nodes = (
"225 0 LINE",
"245 20 LINE",
"245 340 LINE",
"255 350 LINE",
"335 350 OFFCURVE",
"405 410 OFFCURVE",
"405 520 CURVE SMOOTH",
"405 620 OFFCURVE",
"335 700 OFFCURVE",
"205 700 CURVE SMOOTH",
"35 700 LINE",
"15 680 LINE",
"15 510 LINE",
"25 500 LINE",
"235 500 LINE",
"245 490 LINE",
"245 485 LINE",
"235 475 LINE",
"25 475 LINE",
"15 465 LINE",
"15 20 LINE",
"35 0 LINE"
);
}
);
width = 415;
}
);
leftKerningGroup = P;
rightKerningGroup = P;
unicode = 0050;
},
{
color = 5;
glyphname = Q;
layers = (
{
layerId = master01;
paths = (
{
closed = 1;
nodes = (
"705 0 LINE",
"725 20 LINE",
"725 40 LINE",
"627 111 LINE",
"622 121 LINE",
"627 131 LINE",
"677 177 OFFCURVE",
"730 263 OFFCURVE",
"730 350 CURVE SMOOTH",
"730 551 OFFCURVE",
"569 710 OFFCURVE",
"370 710 CURVE SMOOTH",
"171 710 OFFCURVE",
"10 554 OFFCURVE",
"10 350 CURVE SMOOTH",
"10 151 OFFCURVE",
"150 0 OFFCURVE",
"390 0 CURVE SMOOTH"
);
}
);
width = 740;
},
{
associatedMasterId = master01;
layerId = "9B2036D1-A9B9-454B-89C1-5B0E5F326CED";
name = "Jul 28, 22, 16:38";
paths = (
{
closed = 1;
nodes = (
"670 0 LINE",
"690 20 LINE",
"690 40 LINE",
"587 111 LINE",
"582 121 LINE",
"587 131 LINE",
"637 177 OFFCURVE",
"680 274 OFFCURVE",
"680 353 CURVE SMOOTH",
"680 554 OFFCURVE",
"566 710 OFFCURVE",
"350 710 CURVE SMOOTH",
"134 710 OFFCURVE",
"10 554 OFFCURVE",
"10 353 CURVE SMOOTH",
"10 151 OFFCURVE",
"160 0 OFFCURVE",
"390 0 CURVE SMOOTH"
);
}
);
width = 705;
},
{
associatedMasterId = master01;
layerId = "AB217EE8-7CD3-4877-A646-A5278714EA0C";
name = "Jul 28, 22, 16:38";
paths = (
{
closed = 1;
nodes = (
"564 -10 OFFCURVE",
"725 151 OFFCURVE",
"725 350 CURVE SMOOTH",
"725 549 OFFCURVE",
"564 710 OFFCURVE",
"365 710 CURVE SMOOTH",
"166 710 OFFCURVE",
"5 549 OFFCURVE",
"5 350 CURVE SMOOTH",
"5 151 OFFCURVE",
"166 -10 OFFCURVE",
"365 -10 CURVE SMOOTH"
);
}
);
visible = 1;
width = 730;
}
);
leftKerningGroup = O;
rightKerningGroup = Q;
unicode = 0051;
},
{
color = 5;
glyphname = R;
layers = (
{
layerId = master01;
paths = (
{
closed = 1;
nodes = (
"235 0 LINE",
"245 10 LINE",
"245 290 LINE",
"255 300 LINE",
"265 300 LINE",
"275 290 LINE",
"275 10 LINE",
"285 0 LINE",
"485 0 LINE",
"505 20 LINE",
"505 40 LINE",
"425 290 LINE",
"423 300 LINE",
"425 310 LINE",
"475 350 OFFCURVE",
"505 397 OFFCURVE",
"505 470 CURVE SMOOTH",
"505 610 OFFCURVE",
"435 700 OFFCURVE",
"255 700 CURVE SMOOTH",
"35 700 LINE",
"15 680 LINE",
"15 510 LINE",
"25 500 LINE",
"235 500 LINE",
"245 490 LINE",
"245 485 LINE",
"235 475 LINE",
"25 475 LINE",
"15 465 LINE",
"15 20 LINE",
"35 0 LINE"
);
}
);
width = 515;
}
);
leftKerningGroup = R;
rightKerningGroup = R;
unicode = 0052;
},
{
color = 5;
glyphname = S;
layers = (
{
layerId = master01;
paths = (
{
closed = 1;
nodes = (
"398 -10 OFFCURVE",
"490 116 OFFCURVE",
"490 226 CURVE SMOOTH",
"490 339 OFFCURVE",
"439 421 OFFCURVE",
"351 487 CURVE",
"346 497 LINE",
"351 507 LINE",
"425 557 LINE",
"430 567 LINE",
"430 587 LINE",
"400 662 OFFCURVE",
"328 710 OFFCURVE",
"241 710 CURVE SMOOTH",
"120 710 OFFCURVE",
"21 607 OFFCURVE",
"21 500 CURVE SMOOTH",
"21 414 OFFCURVE",
"53 356 OFFCURVE",
"103 313 CURVE",
"108 303 LINE",
"103 293 LINE",
"14 242 LINE",
"10 232 LINE",
"10 212 LINE",
"10 101 OFFCURVE",
"122 -10 OFFCURVE",
"248 -10 CURVE SMOOTH"
);
}
);
width = 500;
},
{
associatedMasterId = master01;
layerId = "BF85B489-812A-40DA-B06E-25300FF05A38";
name = "Jul 28, 22, 16:41";
paths = (
{
closed = 1;
nodes = (
"377 -9 OFFCURVE",
"485 99 OFFCURVE",
"485 232 CURVE SMOOTH",
"485 365 OFFCURVE",
"377 473 OFFCURVE",
"244 473 CURVE SMOOTH",
"111 473 OFFCURVE",
"3 365 OFFCURVE",
"3 232 CURVE SMOOTH",
"3 99 OFFCURVE",
"111 -9 OFFCURVE",
"244 -9 CURVE SMOOTH"
);
},
{
closed = 1;
nodes = (
"356 272 OFFCURVE",
"454 370 OFFCURVE",
"454 491 CURVE SMOOTH",
"454 612 OFFCURVE",
"356 710 OFFCURVE",
"235 710 CURVE SMOOTH",
"114 710 OFFCURVE",
"16 612 OFFCURVE",
"16 491 CURVE SMOOTH",
"16 370 OFFCURVE",
"114 272 OFFCURVE",
"235 272 CURVE SMOOTH"
);
}
);
visible = 1;
width = 490;
}
);
leftKerningGroup = S;
rightKerningGroup = S;
unicode = 0053;
},
{
color = 5;
glyphname = T;
layers = (
{
layerId = master01;
paths = (
{
closed = 1;
nodes = (
"315 0 LINE",
"335 20 LINE",
"335 490 LINE",
"345 500 LINE",
"405 500 LINE",
"425 520 LINE",
"425 680 LINE",
"405 700 LINE",
"35 700 LINE",
"15 680 LINE",
"15 520 LINE",
"35 500 LINE",
"95 500 LINE",
"105 490 LINE",
"105 20 LINE",
"125 0 LINE"
);
}
);
width = 440;
}
);
leftKerningGroup = T;
rightKerningGroup = T;
unicode = 0054;
},
{
color = 5;
glyphname = U;
layers = (
{
layerId = master01;
paths = (
{
closed = 1;
nodes = (
"405 -11 OFFCURVE",
"495 40 OFFCURVE",
"495 210 CURVE SMOOTH",
"495 680 LINE",
"475 700 LINE",
"280 700 LINE",
"270 690 LINE",
"270 510 LINE",
"260 500 LINE",
"250 500 LINE",
"240 510 LINE",
"240 690 LINE",
"230 700 LINE",
"35 700 LINE",
"15 680 LINE",
"15 210 LINE SMOOTH",
"15 40 OFFCURVE",
"105 -9 OFFCURVE",
"255 -10 CURVE SMOOTH"
);
}
);
width = 510;
}
);
leftKerningGroup = U;
rightKerningGroup = U;
unicode = 0055;
},
{
color = 5;
glyphname = V;
layers = (
{
layerId = master01;
paths = (
{
closed = 1;
nodes = (
"15 680 LINE",
"15 660 LINE",
"240 10 LINE",
"250 0 LINE",
"270 0 LINE",
"280 10 LINE",
"505 660 LINE",
"505 680 LINE",
"485 700 LINE",
"285 700 LINE",
"275 690 LINE",
"275 510 LINE",
"265 500 LINE",
"255 500 LINE",
"245 510 LINE",
"245 690 LINE",
"235 700 LINE",
"35 700 LINE"
);
}
);
width = 520;
}
);
leftKerningGroup = V;
rightKerningGroup = V;
unicode = 0056;
},
{
color = 5;
glyphname = W;
layers = (
{
layerId = master01;
paths = (
{
closed = 1;
nodes = (
"270 0 LINE",
"280 10 LINE",
"380 299 LINE",
"390 304 LINE",
"400 299 LINE",
"500 10 LINE",
"510 0 LINE",
"530 0 LINE",
"540 10 LINE",
"765 660 LINE",
"765 680 LINE",
"745 700 LINE",
"545 700 LINE",
"535 690 LINE",
"535 510 LINE",
"525 500 LINE",
"515 500 LINE",
"505 510 LINE",
"505 690 LINE",
"495 700 LINE",
"285 700 LINE",
"275 690 LINE",
"275 510 LINE",
"265 500 LINE",
"255 500 LINE",
"245 510 LINE",
"245 690 LINE",
"235 700 LINE",
"35 700 LINE",
"15 680 LINE",
"15 660 LINE",
"240 10 LINE",
"250 0 LINE"
);
}
);
width = 780;
},
{
associatedMasterId = master01;
layerId = "C64F7B5D-6CE5-4F6A-863C-9EF738B83AAB";
name = "Jul 27, 22, 16:45";
paths = (
{
closed = 1;
nodes = (
"50 680 LINE",
"50 660 LINE",
"275 10 LINE",
"285 0 LINE",
"305 0 LINE",
"315 10 LINE",
"540 660 LINE",
"540 680 LINE",
"520 700 LINE",
"320 700 LINE",
"310 690 LINE",
"310 510 LINE",
"300 500 LINE",
"290 500 LINE",
"280 510 LINE",
"280 690 LINE",
"270 700 LINE",
"70 700 LINE"
);
},
{
closed = 1;
nodes = (
"310 680 LINE",
"310 660 LINE",
"535 10 LINE",
"545 0 LINE",
"565 0 LINE",
"575 10 LINE",
"800 660 LINE",
"800 680 LINE",
"780 700 LINE",
"580 700 LINE",
"570 690 LINE",
"570 510 LINE",
"560 500 LINE",
"550 500 LINE",
"540 510 LINE",
"540 690 LINE",
"530 700 LINE",
"330 700 LINE"
);
}
);
visible = 1;
width = 850;
}
);
leftKerningGroup = V;
rightKerningGroup = V;
unicode = 0057;
},
{
color = 5;
glyphname = X;
layers = (
{
layerId = master01;
paths = (
{
closed = 1;
nodes = (
"280 0 LINE",
"290 10 LINE",
"290 340 LINE",
"300 350 LINE",
"310 350 LINE",
"320 340 LINE",
"320 10 LINE",
"330 0 LINE",
"575 0 LINE",
"595 20 LINE",
"595 40 LINE",
"477 415 LINE",
"475 425 LINE",
"477 435 LINE",
"595 660 LINE",
"595 680 LINE",
"575 700 LINE",
"330 700 LINE",
"320 690 LINE",
"320 510 LINE",
"310 500 LINE",
"300 500 LINE",
"290 510 LINE",
"290 690 LINE",
"280 700 LINE",
"35 700 LINE",
"15 680 LINE",
"15 660 LINE",
"133 435 LINE",
"135 425 LINE",
"133 415 LINE",
"15 40 LINE",
"15 20 LINE",
"35 0 LINE"
);
}
);
width = 610;
}
);
leftKerningGroup = X;
rightKerningGroup = X;
unicode = 0058;
},
{
color = 5;
glyphname = Y;
layers = (
{
layerId = master01;
paths = (
{
closed = 1;
nodes = (
"325 0 LINE",
"345 20 LINE",
"345 350 LINE",
"347 360 LINE",
"445 660 LINE",
"445 680 LINE",
"425 700 LINE",
"255 700 LINE",
"245 690 LINE",
"245 510 LINE",
"235 500 LINE",
"225 500 LINE",
"215 510 LINE",
"215 690 LINE",
"205 700 LINE",
"35 700 LINE",
"15 680 LINE",
"15 660 LINE",
"113 360 LINE",
"115 350 LINE",
"115 20 LINE",
"135 0 LINE"
);
}
);
width = 460;
}
);
leftKerningGroup = Y;
rightKerningGroup = Y;
unicode = 0059;
},
{
color = 5;
glyphname = Z;
layers = (
{
layerId = master01;
paths = (
{
closed = 1;
nodes = (
"495 0 LINE",
"515 20 LINE",
"515 330 LINE",
"495 350 LINE",
"366 350 LINE",
"356 360 LINE",
"356 370 LINE",
"515 660 LINE",
"515 680 LINE",
"495 700 LINE",
"55 700 LINE",
"35 680 LINE",
"35 520 LINE",
"55 500 LINE",
"246 500 LINE",
"256 490 LINE",
"256 480 LINE",
"15 40 LINE",
"15 20 LINE",
"35 0 LINE"
);
}
);
width = 530;
}
);
leftKerningGroup = Z;
rightKerningGroup = Z;
unicode = 005A;
},
{
color = 5;
glyphname = zero;
layers = (
{
layerId = master01;
paths = (
{
closed = 1;
nodes = (
"390 -10 OFFCURVE",
"515 78 OFFCURVE",
"515 218 CURVE SMOOTH",
"515 440 LINE SMOOTH",
"515 640 OFFCURVE",
"390 710 OFFCURVE",
"260 710 CURVE SMOOTH",
"130 710 OFFCURVE",
"15 640 OFFCURVE",
"15 440 CURVE SMOOTH",
"15 218 LINE SMOOTH",
"15 78 OFFCURVE",
"130 -10 OFFCURVE",
"260 -10 CURVE SMOOTH"
);
}
);
width = 530;
},
{
associatedMasterId = master01;
layerId = "C39F830C-164B-4761-9E14-B8DC5ADD880E";
name = "Jul 28, 22, 19:27";
paths = (
{
closed = 1;
nodes = (
"398 -10 OFFCURVE",
"510 102 OFFCURVE",
"510 240 CURVE SMOOTH",
"510 378 OFFCURVE",
"398 490 OFFCURVE",
"260 490 CURVE SMOOTH",
"122 490 OFFCURVE",
"10 378 OFFCURVE",
"10 240 CURVE SMOOTH",
"10 102 OFFCURVE",
"122 -10 OFFCURVE",
"260 -10 CURVE SMOOTH"
);
},
{
closed = 1;
nodes = (
"398 210 OFFCURVE",
"510 322 OFFCURVE",
"510 460 CURVE SMOOTH",
"510 598 OFFCURVE",
"398 710 OFFCURVE",
"260 710 CURVE SMOOTH",
"122 710 OFFCURVE",
"10 598 OFFCURVE",
"10 460 CURVE SMOOTH",
"10 322 OFFCURVE",
"122 210 OFFCURVE",
"260 210 CURVE SMOOTH"
);
}
);
visible = 1;
width = 520;
}
);
leftKerningGroup = "0";
rightKerningGroup = "0";
unicode = 0030;
},
{
color = 5;
glyphname = one;
layers = (
{
layerId = master01;
paths = (
{
closed = 1;
nodes = (
"325 0 LINE",
"345 20 LINE",
"345 680 LINE",
"325 700 LINE",
"35 700 LINE",
"15 680 LINE",
"15 520 LINE",
"35 500 LINE",
"105 500 LINE",
"115 490 LINE",
"115 20 LINE",
"135 0 LINE"
);
}
);
width = 360;
}
);
leftKerningGroup = "1";
rightKerningGroup = "1";
unicode = 0031;
},
{
color = 5;
glyphname = two;
layers = (
{
layerId = master01;
paths = (
{
closed = 1;
nodes = (
"435 0 LINE",
"455 20 LINE",
"455 330 LINE",
"435 350 LINE",
"366 350 LINE",
"356 360 LINE",
"356 370 LINE",
"379 445 LINE SMOOTH",
"389 479 OFFCURVE",
"400 507 OFFCURVE",
"400 540 CURVE SMOOTH",
"400 628 OFFCURVE",
"344 710 OFFCURVE",
"215 710 CURVE SMOOTH",
"77 710 OFFCURVE",
"15 633 OFFCURVE",
"15 540 CURVE SMOOTH",
"15 520 LINE",
"35 500 LINE",
"153 500 LINE",
"163 490 LINE",
"163 480 LINE",
"25 40 LINE",
"25 20 LINE",
"45 0 LINE"
);
}
);
width = 470;
},
{
associatedMasterId = master01;
layerId = "C1AA03C7-5975-4635-BC8A-7521E59386B9";
name = "Jul 28, 22, 21:50";
paths = (
{
closed = 1;
nodes = (
"147 0 LINE",
"167 20 LINE",
"367 660 LINE",
"367 680 LINE",
"347 700 LINE",
"-20 700 LINE",
"-40 680 LINE",
"-40 520 LINE",
"-20 500 LINE",
"156 500 LINE",
"166 490 LINE",
"25 40 LINE",
"25 20 LINE",
"45 0 LINE"
);
}
);
visible = 1;
width = 470;
}
);
leftKerningGroup = "2";
rightKerningGroup = "2";
unicode = 0032;
},
{
color = 5;
glyphname = three;
layers = (
{
layerId = master01;
paths = (
{
closed = 1;
nodes = (
"442 -10 OFFCURVE",
"515 109 OFFCURVE",
"515 241 CURVE SMOOTH",
"515 367 OFFCURVE",
"441 452 OFFCURVE",
"354 475 CURVE",
"344 485 LINE",
"344 490 LINE",
"354 500 LINE",
"378 518 OFFCURVE",
"405 551 OFFCURVE",
"405 589 CURVE SMOOTH",
"405 683 OFFCURVE",
"340 710 OFFCURVE",
"265 710 CURVE SMOOTH",
"160 710 OFFCURVE",
"124 667 OFFCURVE",
"124 560 CURVE SMOOTH",
"124 510 LINE",
"134 500 LINE",
"253 500 LINE",
"263 490 LINE",
"263 485 LINE",
"253 475 LINE",
"134 475 LINE",
"124 465 LINE",
"124 385 LINE",
"134 375 LINE",
"254 375 LINE",
"264 365 LINE",
"264 360 LINE",
"254 350 LINE",
"36 350 LINE",
"15 330 LINE",
"15 250 LINE SMOOTH",
"15 101 OFFCURVE",
"97 -10 OFFCURVE",
"263 -10 CURVE SMOOTH"
);
}
);
width = 525;
}
);
leftKerningGroup = "3";
rightKerningGroup = "3";
unicode = 0033;
},
{
color = 5;
glyphname = four;
layers = (
{
layerId = master01;
paths = (
{
closed = 1;
nodes = (
"340 0 LINE",
"360 20 LINE",
"360 465 LINE",
"350 475 LINE",
"250 475 LINE",
"240 485 LINE",
"240 490 LINE",
"250 500 LINE",
"350 500 LINE",
"360 510 LINE",
"360 680 LINE",
"340 700 LINE",
"160 700 LINE",
"140 680 LINE",
"10 495 LINE",
"10 475 LINE",
"30 455 LINE",
"120 455 LINE",
"130 445 LINE",
"130 20 LINE",
"150 0 LINE"
);
}
);
width = 375;
}
);
leftKerningGroup = "4";
rightKerningGroup = "4";
unicode = 0034;
},
{
color = 5;
glyphname = five;
layers = (
{
layerId = master01;
paths = (
{
closed = 1;
nodes = (
"401 -10 OFFCURVE",
"510 85 OFFCURVE",
"510 250 CURVE SMOOTH",
"510 375 OFFCURVE",
"403 475 OFFCURVE",
"250 475 CURVE",
"240 485 LINE",
"240 490 LINE",
"250 500 LINE",
"385 500 LINE",
"405 520 LINE",
"405 680 LINE",
"385 700 LINE",
"90 700 LINE",
"70 680 LINE",
"70 385 LINE",
"80 375 LINE",
"250 375 LINE",
"260 365 LINE",
"260 360 LINE",
"250 350 LINE",
"30 350 LINE",
"10 330 LINE",
"10 250 LINE SMOOTH",
"10 85 OFFCURVE",
"137 -10 OFFCURVE",
"259 -10 CURVE SMOOTH"
);
}
);
width = 520;
},
{
associatedMasterId = master01;
layerId = "2918EB62-0031-40E0-BF38-E6FBC61E7A35";
name = "Jul 28, 22, 21:25";
paths = (
{
closed = 1;
nodes = (
"423 -10 OFFCURVE",
"535 102 OFFCURVE",
"535 240 CURVE SMOOTH",
"535 378 OFFCURVE",
"423 490 OFFCURVE",
"285 490 CURVE SMOOTH",
"147 490 OFFCURVE",
"35 378 OFFCURVE",
"35 240 CURVE SMOOTH",
"35 102 OFFCURVE",
"147 -10 OFFCURVE",
"285 -10 CURVE SMOOTH"
);
}
);
visible = 1;
width = 560;
}
);
leftKerningGroup = "5";
rightKerningGroup = "5";
unicode = 0035;
},
{
color = 5;
glyphname = six;
layers = (
{
layerId = master01;
paths = (
{
closed = 1;
nodes = (
"398 -10 OFFCURVE",
"515 97 OFFCURVE",
"515 237 CURVE SMOOTH",
"515 387 OFFCURVE",
"428 475 OFFCURVE",
"298 475 CURVE SMOOTH",
"214 475 LINE",
"204 485 LINE",
"204 490 LINE",
"214 500 LINE",
"390 500 LINE",
"410 520 LINE",
"410 680 LINE",
"390 700 LINE",
"303 700 LINE SMOOTH",
"144 700 OFFCURVE",
"15 522 OFFCURVE",
"15 319 CURVE SMOOTH",
"15 237 LINE SMOOTH",
"15 97 OFFCURVE",
"117 -10 OFFCURVE",
"265 -10 CURVE SMOOTH"
);
}
);
width = 525;
},
{
associatedMasterId = master01;
layerId = "073F439D-993E-471F-8DB2-A5867EF1EEC5";
name = "Jul 28, 22, 20:07";
paths = (
{
closed = 1;
nodes = (
"403 -10 OFFCURVE",
"515 102 OFFCURVE",
"515 240 CURVE SMOOTH",
"515 378 OFFCURVE",
"403 490 OFFCURVE",
"265 490 CURVE SMOOTH",
"127 490 OFFCURVE",
"15 378 OFFCURVE",
"15 240 CURVE SMOOTH",
"15 102 OFFCURVE",
"127 -10 OFFCURVE",
"265 -10 CURVE SMOOTH"
);
}
);
visible = 1;
width = 525;
}
);
leftKerningGroup = "6";
rightKerningGroup = "6";
unicode = 0036;
},
{
color = 5;
glyphname = seven;
layers = (
{
layerId = master01;
paths = (
{
closed = 1;
nodes = (
"182 0 LINE",
"202 20 LINE",
"402 660 LINE",
"402 680 LINE",
"382 700 LINE",
"35 700 LINE",
"15 680 LINE",
"15 520 LINE",
"35 500 LINE",
"191 500 LINE",
"201 490 LINE",
"60 40 LINE",
"60 20 LINE",
"80 0 LINE"
);
}
);
width = 412;
}
);
leftKerningGroup = "7";
rightKerningGroup = "7";
unicode = 0037;
},
{
color = 5;
glyphname = eight;
layers = (
{
layerId = master01;
paths = (
{
closed = 1;
nodes = (
"380 -11 OFFCURVE",
"511 75 OFFCURVE",
"510 239 CURVE SMOOTH",
"509 383 OFFCURVE",
"408 475 OFFCURVE",
"285 475 CURVE",
"275 485 LINE",
"275 490 LINE",
"285 500 LINE",
"345 500 OFFCURVE",
"381 548 OFFCURVE",
"381 597 CURVE SMOOTH",
"381 666 OFFCURVE",
"320 710 OFFCURVE",
"260 710 CURVE SMOOTH",
"200 710 OFFCURVE",
"145 666 OFFCURVE",
"145 597 CURVE SMOOTH",
"145 548 OFFCURVE",
"175 500 OFFCURVE",
"235 500 CURVE",
"245 490 LINE",
"245 484 LINE",
"235 474 LINE",
"117 470 OFFCURVE",
"10 383 OFFCURVE",
"10 239 CURVE SMOOTH",
"10 75 OFFCURVE",
"140 -11 OFFCURVE",
"260 -11 CURVE SMOOTH"
);
}
);
width = 520;
},
{
associatedMasterId = master01;
layerId = "272A66D8-2B16-427A-ABB5-106418EE577F";
name = "Jul 28, 22, 20:01";
paths = (
{
closed = 1;
nodes = (
"405 -10 OFFCURVE",
"517 102 OFFCURVE",
"517 240 CURVE SMOOTH",
"517 378 OFFCURVE",
"405 490 OFFCURVE",
"267 490 CURVE SMOOTH",
"129 490 OFFCURVE",
"17 378 OFFCURVE",
"17 240 CURVE SMOOTH",
"17 102 OFFCURVE",
"129 -10 OFFCURVE",
"267 -10 CURVE SMOOTH"
);
},
{
closed = 1;
nodes = (
"335 474 OFFCURVE",
"388 527 OFFCURVE",
"388 592 CURVE SMOOTH",
"388 657 OFFCURVE",
"335 710 OFFCURVE",
"270 710 CURVE SMOOTH",
"205 710 OFFCURVE",
"152 657 OFFCURVE",
"152 592 CURVE SMOOTH",
"152 527 OFFCURVE",
"205 474 OFFCURVE",
"270 474 CURVE SMOOTH"
);
}
);
visible = 1;
width = 530;
}
);
leftKerningGroup = "8";
rightKerningGroup = "8";
unicode = 0038;
},
{
color = 5;
glyphname = nine;
layers = (
{
layerId = master01;
paths = (
{
closed = 1;
nodes = (
"200 0 LINE",
"220 20 LINE",
"314 321 LINE SMOOTH",
"345 419 OFFCURVE",
"371 478 OFFCURVE",
"370 528 CURVE SMOOTH",
"368 644 OFFCURVE",
"279 710 OFFCURVE",
"189 710 CURVE SMOOTH",
"88 710 OFFCURVE",
"10 631 OFFCURVE",
"10 528 CURVE SMOOTH",
"10 425 OFFCURVE",
"104 375 OFFCURVE",
"170 375 CURVE",
"180 365 LINE",
"78 40 LINE",
"78 20 LINE",
"98 0 LINE"
);
}
);
width = 380;
},
{
associatedMasterId = master01;
layerId = "9825B1C0-5431-4819-BDB2-F31BFF69AF57";
name = "Jul 28, 22, 19:14";
paths = (
{
closed = 1;
nodes = (
"288 349 OFFCURVE",
"369 430 OFFCURVE",
"369 529 CURVE SMOOTH",
"369 628 OFFCURVE",
"288 709 OFFCURVE",
"189 709 CURVE SMOOTH",
"90 709 OFFCURVE",
"9 628 OFFCURVE",
"9 529 CURVE SMOOTH",
"9 430 OFFCURVE",
"90 349 OFFCURVE",
"189 349 CURVE SMOOTH"
);
}
);
visible = 1;
width = 379;
}
);
leftKerningGroup = "9";
rightKerningGroup = "9";
unicode = 0039;
},
{
color = 5;
glyphname = period;
layers = (
{
layerId = master01;
paths = (
{
closed = 1;
nodes = (
"165 -10 OFFCURVE",
"215 25 OFFCURVE",
"215 90 CURVE SMOOTH",
"215 145 OFFCURVE",
"165 180 OFFCURVE",
"115 180 CURVE SMOOTH",
"65 180 OFFCURVE",
"15 145 OFFCURVE",
"15 90 CURVE SMOOTH",
"15 25 OFFCURVE",
"65 -10 OFFCURVE",
"115 -10 CURVE SMOOTH"
);
}
);
width = 230;
}
);
leftKerningGroup = period;
rightKerningGroup = period;
unicode = 002E;
},
{
color = 5;
glyphname = comma;
layers = (
{
layerId = master01;
paths = (
{
closed = 1;
nodes = (
"151 -30 LINE",
"161 -20 LINE SMOOTH",
"188 7 OFFCURVE",
"215 49 OFFCURVE",
"215 90 CURVE SMOOTH",
"215 145 OFFCURVE",
"165 180 OFFCURVE",
"115 180 CURVE SMOOTH",
"65 180 OFFCURVE",
"15 145 OFFCURVE",
"15 90 CURVE SMOOTH",
"15 52 OFFCURVE",
"41 20 OFFCURVE",
"85 20 CURVE",
"95 10 LINE",
"85 -10 LINE",
"85 -20 LINE",
"95 -30 LINE"
);
}
);
width = 230;
}
);
leftKerningGroup = period;
rightKerningGroup = period;
unicode = 002C;
},
{
color = 5;
glyphname = colon;
layers = (
{
layerId = master01;
paths = (
{
closed = 1;
nodes = (
"165 -10 OFFCURVE",
"215 25 OFFCURVE",
"215 90 CURVE SMOOTH",
"215 145 OFFCURVE",
"165 180 OFFCURVE",
"115 180 CURVE SMOOTH",
"65 180 OFFCURVE",
"15 145 OFFCURVE",
"15 90 CURVE SMOOTH",
"15 25 OFFCURVE",
"65 -10 OFFCURVE",
"115 -10 CURVE SMOOTH"
);
},
{
closed = 1;
nodes = (
"178 229 OFFCURVE",
"215 270 OFFCURVE",
"215 330 CURVE SMOOTH",
"215 390 OFFCURVE",
"165 420 OFFCURVE",
"115 420 CURVE SMOOTH",
"65 420 OFFCURVE",
"15 390 OFFCURVE",
"15 330 CURVE SMOOTH",
"15 270 OFFCURVE",
"66 231 OFFCURVE",
"115 230 CURVE SMOOTH"
);
}
);
width = 230;
}
);
leftKerningGroup = colon;
rightKerningGroup = colon;
unicode = 003A;
},
{
color = 5;
glyphname = semicolon;
layers = (
{
layerId = master01;
paths = (
{
closed = 1;
nodes = (
"169 230 OFFCURVE",
"219 270 OFFCURVE",
"219 330 CURVE SMOOTH",
"219 390 OFFCURVE",
"169 420 OFFCURVE",
"119 420 CURVE SMOOTH",
"69 420 OFFCURVE",
"15 390 OFFCURVE",
"15 330 CURVE SMOOTH",
"15 270 OFFCURVE",
"70 230 OFFCURVE",
"119 230 CURVE SMOOTH"
);
},
{
closed = 1;
nodes = (
"151 -30 LINE",
"161 -20 LINE SMOOTH",
"188 7 OFFCURVE",
"215 49 OFFCURVE",
"215 90 CURVE SMOOTH",
"215 145 OFFCURVE",
"165 180 OFFCURVE",
"115 180 CURVE SMOOTH",
"65 180 OFFCURVE",
"15 145 OFFCURVE",
"15 90 CURVE SMOOTH",
"15 52 OFFCURVE",
"41 20 OFFCURVE",
"85 20 CURVE",
"95 10 LINE",
"85 -10 LINE",
"85 -20 LINE",
"95 -30 LINE"
);
}
);
width = 234;
}
);
leftKerningGroup = colon;
rightKerningGroup = colon;
unicode = 003B;
},
{
color = 5;
glyphname = exclam;
layers = (
{
layerId = master01;
paths = (
{
closed = 1;
nodes = (
"195 -10 OFFCURVE",
"245 25 OFFCURVE",
"245 90 CURVE SMOOTH",
"245 145 OFFCURVE",
"195 180 OFFCURVE",
"145 180 CURVE SMOOTH",
"95 180 OFFCURVE",
"45 145 OFFCURVE",
"45 90 CURVE SMOOTH",
"45 25 OFFCURVE",
"95 -10 OFFCURVE",
"145 -10 CURVE SMOOTH"
);
},
{
closed = 1;
nodes = (
"205 220 LINE",
"225 240 LINE",
"247 334 OFFCURVE",
"280 503 OFFCURVE",
"280 570 CURVE SMOOTH",
"280 650 OFFCURVE",
"220 710 OFFCURVE",
"145 710 CURVE SMOOTH",
"70 710 OFFCURVE",
"10 650 OFFCURVE",
"10 570 CURVE SMOOTH",
"10 502 OFFCURVE",
"54 333 OFFCURVE",
"75 240 CURVE",
"95 220 LINE"
);
}
);
width = 290;
},
{
associatedMasterId = master01;
layerId = "DD4A7016-BDD6-4825-915A-CC1861DCFC31";
name = "Jul 28, 22, 19:33";
paths = (
{
closed = 1;
nodes = (
"195 -10 OFFCURVE",
"245 25 OFFCURVE",
"245 90 CURVE SMOOTH",
"245 145 OFFCURVE",
"195 180 OFFCURVE",
"145 180 CURVE SMOOTH",
"95 180 OFFCURVE",
"45 145 OFFCURVE",
"45 90 CURVE SMOOTH",
"45 25 OFFCURVE",
"95 -10 OFFCURVE",
"145 -10 CURVE SMOOTH"
);
},
{
closed = 1;
nodes = (
"219 439 OFFCURVE",
"280 500 OFFCURVE",
"280 575 CURVE SMOOTH",
"280 649 OFFCURVE",
"219 710 OFFCURVE",
"145 710 CURVE SMOOTH",
"70 710 OFFCURVE",
"9 649 OFFCURVE",
"9 575 CURVE SMOOTH",
"9 500 OFFCURVE",
"70 439 OFFCURVE",
"145 439 CURVE SMOOTH"
);
}
);
visible = 1;
width = 290;
}
);
leftKerningGroup = exclam;
rightKerningGroup = exclam;
unicode = 0021;
},
{
color = 5;
glyphname = question;
layers = (
{
layerId = master01;
paths = (
{
closed = 1;
nodes = (
"250 -10 OFFCURVE",
"300 25 OFFCURVE",
"300 90 CURVE SMOOTH",
"300 145 OFFCURVE",
"250 180 OFFCURVE",
"200 180 CURVE SMOOTH",
"150 180 OFFCURVE",
"100 145 OFFCURVE",
"100 90 CURVE SMOOTH",
"100 25 OFFCURVE",
"150 -10 OFFCURVE",
"200 -10 CURVE SMOOTH"
);
},
{
closed = 1;
nodes = (
"240 220 LINE",
"260 240 LINE",
"344 401 OFFCURVE",
"385 480 OFFCURVE",
"385 540 CURVE SMOOTH",
"385 622 OFFCURVE",
"321 710 OFFCURVE",
"201 710 CURVE SMOOTH",
"81 710 OFFCURVE",
"15 622 OFFCURVE",
"15 540 CURVE SMOOTH",
"15 520 LINE",
"35 500 LINE",
"190 500 LINE",
"200 490 LINE",
"140 240 LINE",
"160 220 LINE"
);
}
);
width = 395;
},
{
associatedMasterId = master01;
layerId = "C283B7FF-1FCE-4199-9660-36FA2450B56C";
name = "Jul 28, 22, 19:48";
paths = (
{
closed = 1;
nodes = (
"250 -10 OFFCURVE",
"300 25 OFFCURVE",
"300 90 CURVE SMOOTH",
"300 145 OFFCURVE",
"250 180 OFFCURVE",
"200 180 CURVE SMOOTH",
"150 180 OFFCURVE",
"100 145 OFFCURVE",
"100 90 CURVE SMOOTH",
"100 25 OFFCURVE",
"150 -10 OFFCURVE",
"200 -10 CURVE SMOOTH"
);
},
{
closed = 1;
nodes = (
"303 340 OFFCURVE",
"386 423 OFFCURVE",
"386 525 CURVE SMOOTH",
"386 627 OFFCURVE",
"303 710 OFFCURVE",
"201 710 CURVE SMOOTH",
"99 710 OFFCURVE",
"16 627 OFFCURVE",
"16 525 CURVE SMOOTH",
"16 423 OFFCURVE",
"99 340 OFFCURVE",
"201 340 CURVE SMOOTH"
);
}
);
visible = 1;
width = 400;
}
);
leftKerningGroup = question;
rightKerningGroup = question;
unicode = 003F;
},
{
color = 5;
glyphname = hyphen;
layers = (
{
layerId = master01;
paths = (
{
closed = 1;
nodes = (
"255 375 LINE",
"265 385 LINE",
"265 465 LINE",
"255 475 LINE",
"25 475 LINE",
"15 465 LINE",
"15 385 LINE",
"22 375 LINE"
);
}
);
width = 280;
}
);
leftKerningGroup = dash;
rightKerningGroup = dash;
unicode = 002D;
},
{
color = 5;
glyphname = endash;
layers = (
{
layerId = master01;
paths = (
{
closed = 1;
nodes = (
"545 375 LINE",
"555 385 LINE",
"555 465 LINE",
"545 475 LINE",
"25 475 LINE",
"15 465 LINE",
"15 385 LINE",
"22 375 LINE"
);
}
);
width = 570;
},
{
associatedMasterId = master01;
layerId = "026C2084-A9C0-4BCB-BCC1-6A91AB58419B";
name = "Jul 27, 22, 16:53";
paths = (
{
closed = 1;
nodes = (
"555 375 LINE",
"555 475 LINE",
"15 475 LINE",
"15 375 LINE"
);
}
);
visible = 1;
width = 570;
}
);
leftKerningGroup = dash;
rightKerningGroup = dash;
unicode = 2013;
},
{
color = 5;
glyphname = emdash;
layers = (
{
layerId = master01;
paths = (
{
closed = 1;
nodes = (
"755 375 LINE",
"765 385 LINE",
"765 465 LINE",
"755 475 LINE",
"25 475 LINE",
"15 465 LINE",
"15 385 LINE",
"22 375 LINE"
);
}
);
width = 780;
},
{
associatedMasterId = master01;
layerId = "BA63E671-4C72-48C8-8A53-433C2CD1F271";
name = "Jul 27, 22, 16:54";
paths = (
{
closed = 1;
nodes = (
"765 375 LINE",
"765 475 LINE",
"15 475 LINE",
"15 375 LINE"
);
}
);
visible = 1;
width = 780;
}
);
leftKerningGroup = dash;
rightKerningGroup = dash;
unicode = 2014;
},
{
color = 5;
glyphname = parenleft;
layers = (
{
layerId = master01;
paths = (
{
closed = 1;
nodes = (
"110 -10 OFFCURVE",
"10 148 OFFCURVE",
"10 350 CURVE SMOOTH",
"10 537 OFFCURVE",
"110 710 OFFCURVE",
"250 710 CURVE",
"270 690 LINE",
"270 10 LINE",
"250 -10 LINE"
);
}
);
width = 285;
}
);
unicode = 0028;
},
{
color = 5;
glyphname = parenright;
layers = (
{
layerId = master01;
paths = (
{
closed = 1;
nodes = (
"175 -10 OFFCURVE",
"275 120 OFFCURVE",
"275 350 CURVE SMOOTH",
"275 582 OFFCURVE",
"185 710 OFFCURVE",
"35 710 CURVE",
"15 690 LINE",
"15 10 LINE",
"35 -10 LINE"
);
}
);
width = 285;
}
);
unicode = 0029;
},
{
color = 5;
glyphname = ampersand;
layers = (
{
layerId = master01;
paths = (
{
closed = 1;
nodes = (
"595 0 LINE",
"615 20 LINE",
"615 330 LINE",
"595 350 LINE",
"259 350 LINE",
"249 360 LINE",
"249 365 LINE",
"259 375 LINE",
"505 375 LINE",
"515 385 LINE",
"515 465 LINE",
"505 475 LINE",
"255 475 LINE",
"245 485 LINE",
"245 490 LINE",
"255 500 LINE",
"411 500 LINE",
"421 510 LINE",
"421 540 LINE SMOOTH",
"421 629 OFFCURVE",
"345 710 OFFCURVE",
"238 710 CURVE SMOOTH",
"127 710 OFFCURVE",
"45 630 OFFCURVE",
"45 520 CURVE SMOOTH",
"45 449 OFFCURVE",
"84 396 OFFCURVE",
"115 375 CURVE",
"125 365 LINE",
"125 360 LINE",
"115 350 LINE",
"65 329 OFFCURVE",
"10 289 OFFCURVE",
"10 178 CURVE SMOOTH",
"10 67 OFFCURVE",
"107 0 OFFCURVE",
"254 0 CURVE SMOOTH"
);
}
);
width = 630;
},
{
associatedMasterId = master01;
layerId = "583E689C-095C-40F4-914D-00C8C1688B33";
name = "Jul 29, 22, 13:10";
paths = (
{
closed = 1;
nodes = (
"307 0 OFFCURVE",
"391 84 OFFCURVE",
"391 188 CURVE SMOOTH",
"391 292 OFFCURVE",
"307 376 OFFCURVE",
"203 376 CURVE SMOOTH",
"99 376 OFFCURVE",
"15 292 OFFCURVE",
"15 188 CURVE SMOOTH",
"15 84 OFFCURVE",
"99 0 OFFCURVE",
"203 0 CURVE SMOOTH"
);
},
{
closed = 1;
nodes = (
"344 334 OFFCURVE",
"428 418 OFFCURVE",
"428 522 CURVE SMOOTH",
"428 626 OFFCURVE",
"344 710 OFFCURVE",
"240 710 CURVE SMOOTH",
"136 710 OFFCURVE",
"52 626 OFFCURVE",
"52 522 CURVE SMOOTH",
"52 418 OFFCURVE",
"136 334 OFFCURVE",
"240 334 CURVE SMOOTH"
);
}
);
visible = 1;
width = 635;
}
);
leftKerningGroup = ampersand;
rightKerningGroup = ampersand;
unicode = 0026;
},
{
color = 5;
glyphname = dollar;
layers = (
{
layerId = master01;
paths = (
{
closed = 1;
nodes = (
"432 606 OFFCURVE",
"393 652 OFFCURVE",
"340 675 CURVE SMOOTH",
"340 710 LINE",
"170 710 LINE",
"170 680 LINE SMOOTH",
"86 656 OFFCURVE",
"25 578 OFFCURVE",
"25 496 CURVE SMOOTH",
"25 422 OFFCURVE",
"62 382 OFFCURVE",
"115 340 CURVE SMOOTH",
"15 250 LINE SMOOTH",
"15 153 OFFCURVE",
"73 54 OFFCURVE",
"170 22 CURVE SMOOTH",
"170 -10 LINE",
"340 -10 LINE",
"340 28 LINE SMOOTH",
"435 65 OFFCURVE",
"495 158 OFFCURVE",
"495 250 CURVE SMOOTH",
"495 364 OFFCURVE",
"428 424 OFFCURVE",
"365 480 CURVE SMOOTH",
"451 547 LINE SMOOTH"
);
}
